<mxfile host="Electron" modified="2024-06-14T17:01:14.382Z" agent="Mozilla/5.0 (Windows NT 10.0; Win64; x64) AppleWebKit/537.36 (KHTML, like Gecko) draw.io/24.5.3 Chrome/124.0.6367.207 Electron/30.0.6 Safari/537.36" etag="TMbuGd-buM9gShVoZ3yl" version="24.5.3" type="device">
  <diagram name="Page-1" id="Uv49C_V9yGS49xCWmig8">
    <mxGraphModel dx="18450" dy="11580" grid="1" gridSize="10" guides="1" tooltips="1" connect="1" arrows="1" fold="1" page="1" pageScale="1" pageWidth="850" pageHeight="1100" background="#FFCC99" math="0" shadow="0">
      <root>
        <mxCell id="0" />
        <mxCell id="1" parent="0" />
        <mxCell id="5G1Je_8sJRLMZWRBr-_F-3" style="edgeStyle=orthogonalEdgeStyle;rounded=0;orthogonalLoop=1;jettySize=auto;html=1;exitX=1;exitY=0.5;exitDx=0;exitDy=0;entryX=0;entryY=0.5;entryDx=0;entryDy=0;strokeWidth=80;strokeColor=#182E3E;labelBackgroundColor=none;fontColor=default;" edge="1" parent="1" source="5G1Je_8sJRLMZWRBr-_F-1" target="5G1Je_8sJRLMZWRBr-_F-5">
          <mxGeometry relative="1" as="geometry">
            <mxPoint x="1420" y="-140" as="targetPoint" />
          </mxGeometry>
        </mxCell>
        <mxCell id="5G1Je_8sJRLMZWRBr-_F-1" value="&lt;font style=&quot;font-size: 60px;&quot;&gt;&lt;b&gt;Electron&lt;/b&gt;&lt;/font&gt;&lt;div&gt;&lt;font style=&quot;font-size: 60px;&quot;&gt;&lt;b&gt;&lt;br&gt;&lt;/b&gt;&lt;/font&gt;&lt;/div&gt;&lt;div style=&quot;font-size: 40px;&quot;&gt;&lt;font style=&quot;font-size: 40px;&quot;&gt;&lt;b&gt;NIPSCERN DIRECTOR&lt;/b&gt;&lt;/font&gt;&lt;/div&gt;" style="whiteSpace=wrap;html=1;textShadow=1;labelBorderColor=none;labelBackgroundColor=none;rounded=1;glass=0;shadow=0;aspect=fixed;fillColor=#F5AB50;strokeColor=#909090;fontColor=#1A1A1A;" vertex="1" parent="1">
          <mxGeometry x="-720" y="160" width="1000" height="1000" as="geometry" />
        </mxCell>
        <mxCell id="5G1Je_8sJRLMZWRBr-_F-5" value="&lt;span style=&quot;font-size: 40px;&quot;&gt;&lt;font style=&quot;font-size: 60px;&quot;&gt;NIPSCERN DIRECTOR&lt;br&gt;&lt;/font&gt;&lt;/span&gt;&lt;div style=&quot;font-size: 40px;&quot;&gt;&lt;font style=&quot;font-size: 40px;&quot;&gt;&lt;br&gt;&lt;/font&gt;&lt;/div&gt;&lt;div style=&quot;text-align: left; font-size: 40px;&quot;&gt;&lt;ol&gt;&lt;li&gt;&lt;span style=&quot;background-color: initial;&quot;&gt;IDE;&lt;/span&gt;&lt;br&gt;&lt;/li&gt;&lt;li&gt;nipscern.director.log;&lt;/li&gt;&lt;li&gt;Detectar conexão com a internet;&lt;/li&gt;&lt;li&gt;Inicializar com o computador;&lt;/li&gt;&lt;li&gt;Instalar dependências;&lt;/li&gt;&lt;li&gt;Portable&lt;/li&gt;&lt;/ol&gt;&lt;/div&gt;" style="whiteSpace=wrap;html=1;textShadow=1;labelBorderColor=none;labelBackgroundColor=none;rounded=1;glass=0;shadow=0;aspect=fixed;fontStyle=1;fillColor=#F5AB50;strokeColor=#909090;fontColor=#1A1A1A;" vertex="1" parent="1">
          <mxGeometry x="1600" y="1200" width="1200" height="1200" as="geometry" />
        </mxCell>
        <mxCell id="5G1Je_8sJRLMZWRBr-_F-7" value="&lt;span style=&quot;font-size: 40px;&quot;&gt;&lt;font style=&quot;font-size: 60px;&quot;&gt;Conexão Internet&lt;br&gt;&lt;/font&gt;&lt;/span&gt;&lt;div style=&quot;font-size: 40px;&quot;&gt;&lt;font style=&quot;font-size: 40px;&quot;&gt;&lt;br&gt;&lt;/font&gt;&lt;/div&gt;&lt;div style=&quot;text-align: left; font-size: 40px;&quot;&gt;&lt;ol style=&quot;margin-left: 50px;&quot;&gt;&lt;li&gt;Ao entrar no N.D., verificar a conexão com a internet. Caso tenha, prossiga normalmente e, caso contrário, emita um aviso&lt;/li&gt;&lt;/ol&gt;&lt;/div&gt;" style="whiteSpace=wrap;html=1;textShadow=1;labelBorderColor=none;labelBackgroundColor=none;rounded=1;glass=0;shadow=0;aspect=fixed;fontStyle=1;fillColor=#F5AB50;strokeColor=#909090;fontColor=#1A1A1A;" vertex="1" parent="1">
          <mxGeometry x="3125" y="5440" width="1000" height="1000" as="geometry" />
        </mxCell>
        <mxCell id="5G1Je_8sJRLMZWRBr-_F-8" value="&lt;div style=&quot;&quot;&gt;&lt;span style=&quot;font-size: 60px; background-color: initial;&quot;&gt;nipscern.director.log&lt;/span&gt;&lt;/div&gt;&lt;div style=&quot;font-size: 40px;&quot;&gt;&lt;font style=&quot;font-size: 40px;&quot;&gt;&lt;br&gt;&lt;/font&gt;&lt;/div&gt;&lt;div style=&quot;font-size: 40px;&quot;&gt;&lt;ol style=&quot;margin-left: 50px;&quot;&gt;&lt;li style=&quot;text-align: left;&quot;&gt;Criar um log de saída disponível para o usuário verificar se todos os programas foram baixados corretamente, qual versão, a que data, horário, qual o IP, conexão de internet, velocidade, tempo que demorou etc. (todas as informações importantes)&lt;/li&gt;&lt;/ol&gt;&lt;/div&gt;" style="whiteSpace=wrap;html=1;textShadow=1;labelBorderColor=none;labelBackgroundColor=none;rounded=1;glass=0;shadow=0;aspect=fixed;fontStyle=1;fillColor=#F5AB50;strokeColor=#909090;fontColor=#1A1A1A;align=center;" vertex="1" parent="1">
          <mxGeometry x="2160" y="7030" width="1000" height="1000" as="geometry" />
        </mxCell>
        <mxCell id="5G1Je_8sJRLMZWRBr-_F-9" value="&lt;div style=&quot;&quot;&gt;&lt;font style=&quot;font-size: 60px;&quot;&gt;IDE&lt;/font&gt;&lt;/div&gt;&lt;div style=&quot;text-align: left; font-size: 40px;&quot;&gt;&lt;ol&gt;&lt;li&gt;Tema;&lt;/li&gt;&lt;li&gt;Intalled;&lt;/li&gt;&lt;li&gt;Available;&lt;/li&gt;&lt;li&gt;News;&lt;/li&gt;&lt;li&gt;Settings;&lt;/li&gt;&lt;li&gt;About&lt;/li&gt;&lt;/ol&gt;&lt;/div&gt;" style="whiteSpace=wrap;html=1;textShadow=1;labelBorderColor=none;labelBackgroundColor=none;rounded=1;glass=0;shadow=0;aspect=fixed;fontStyle=1;fillColor=#F5AB50;strokeColor=#909090;fontColor=#1A1A1A;" vertex="1" parent="1">
          <mxGeometry x="5680" y="2480" width="1000" height="1000" as="geometry" />
        </mxCell>
        <mxCell id="5G1Je_8sJRLMZWRBr-_F-10" value="&lt;span style=&quot;font-size: 40px;&quot;&gt;&lt;font style=&quot;font-size: 60px;&quot;&gt;Inicializar Log In&lt;br&gt;&lt;/font&gt;&lt;/span&gt;&lt;div style=&quot;font-size: 40px;&quot;&gt;&lt;font style=&quot;font-size: 40px;&quot;&gt;&lt;br&gt;&lt;/font&gt;&lt;/div&gt;&lt;div style=&quot;text-align: left; font-size: 40px;&quot;&gt;&lt;ol style=&quot;margin-left: 50px;&quot;&gt;&lt;li&gt;Ao inicializar o computador, abra o NIPSCERN DIRECTOR para fazer as verificações necessárias (aplicativos já instalados, aplicativos que faltam instalar, versões instaladas, versões recomendadas&lt;br&gt;&lt;/li&gt;&lt;li&gt;Verificar se N.D. está up-to-date)&lt;/li&gt;&lt;/ol&gt;&lt;/div&gt;" style="whiteSpace=wrap;html=1;textShadow=1;labelBorderColor=none;labelBackgroundColor=none;rounded=1;glass=0;shadow=0;aspect=fixed;fontStyle=1;fillColor=#F5AB50;strokeColor=#909090;fontColor=#1A1A1A;" vertex="1" parent="1">
          <mxGeometry x="5680" y="3600" width="1000" height="1000" as="geometry" />
        </mxCell>
        <mxCell id="5G1Je_8sJRLMZWRBr-_F-11" value="&lt;span style=&quot;font-size: 40px;&quot;&gt;&lt;font style=&quot;font-size: 60px;&quot;&gt;Dependências&lt;br&gt;&lt;/font&gt;&lt;/span&gt;&lt;div style=&quot;font-size: 40px;&quot;&gt;&lt;font style=&quot;font-size: 40px;&quot;&gt;&lt;br&gt;&lt;/font&gt;&lt;/div&gt;&lt;div style=&quot;text-align: left; font-size: 40px;&quot;&gt;&lt;ol style=&quot;margin-left: 50px;&quot;&gt;&lt;li&gt;Instalar toda e qualquer dependência que o SAPHO Development Environment necessitar para os programas funcionarem;&lt;/li&gt;&lt;li&gt;Instalar os perfis de configuração para cada programa que suportar&lt;/li&gt;&lt;/ol&gt;&lt;/div&gt;" style="whiteSpace=wrap;html=1;textShadow=1;labelBorderColor=none;labelBackgroundColor=none;rounded=1;glass=0;shadow=0;aspect=fixed;fontStyle=1;fillColor=#F5AB50;strokeColor=#909090;fontColor=#1A1A1A;" vertex="1" parent="1">
          <mxGeometry x="5680" y="4720" width="1000" height="1000" as="geometry" />
        </mxCell>
        <mxCell id="5G1Je_8sJRLMZWRBr-_F-12" style="edgeStyle=orthogonalEdgeStyle;rounded=0;orthogonalLoop=1;jettySize=auto;html=1;exitX=0.75;exitY=1;exitDx=0;exitDy=0;entryX=0.5;entryY=0;entryDx=0;entryDy=0;strokeWidth=50;strokeColor=#182E3E;labelBackgroundColor=none;fontColor=default;" edge="1" parent="1" source="5G1Je_8sJRLMZWRBr-_F-5" target="5G1Je_8sJRLMZWRBr-_F-7">
          <mxGeometry relative="1" as="geometry">
            <mxPoint x="-390" y="3940" as="sourcePoint" />
            <mxPoint x="1300" y="4230" as="targetPoint" />
          </mxGeometry>
        </mxCell>
        <mxCell id="5G1Je_8sJRLMZWRBr-_F-14" style="edgeStyle=orthogonalEdgeStyle;rounded=0;orthogonalLoop=1;jettySize=auto;html=1;exitX=1;exitY=0.25;exitDx=0;exitDy=0;entryX=0;entryY=0.5;entryDx=0;entryDy=0;strokeWidth=50;strokeColor=#182E3E;labelBackgroundColor=none;fontColor=default;" edge="1" parent="1" source="5G1Je_8sJRLMZWRBr-_F-5" target="5G1Je_8sJRLMZWRBr-_F-9">
          <mxGeometry relative="1" as="geometry">
            <mxPoint x="3980" y="680" as="sourcePoint" />
            <mxPoint x="4480" y="1120" as="targetPoint" />
          </mxGeometry>
        </mxCell>
        <mxCell id="5G1Je_8sJRLMZWRBr-_F-15" style="edgeStyle=orthogonalEdgeStyle;rounded=0;orthogonalLoop=1;jettySize=auto;html=1;exitX=1;exitY=0.5;exitDx=0;exitDy=0;entryX=0;entryY=0.5;entryDx=0;entryDy=0;strokeWidth=50;strokeColor=#182E3E;labelBackgroundColor=none;fontColor=default;" edge="1" parent="1" source="5G1Je_8sJRLMZWRBr-_F-5" target="5G1Je_8sJRLMZWRBr-_F-10">
          <mxGeometry relative="1" as="geometry">
            <mxPoint x="3240" y="1050" as="sourcePoint" />
            <mxPoint x="5550" y="1050" as="targetPoint" />
          </mxGeometry>
        </mxCell>
        <mxCell id="5G1Je_8sJRLMZWRBr-_F-16" style="edgeStyle=orthogonalEdgeStyle;rounded=0;orthogonalLoop=1;jettySize=auto;html=1;exitX=1;exitY=0.75;exitDx=0;exitDy=0;entryX=0;entryY=0.5;entryDx=0;entryDy=0;strokeWidth=50;strokeColor=#182E3E;labelBackgroundColor=none;fontColor=default;" edge="1" parent="1" source="5G1Je_8sJRLMZWRBr-_F-5" target="5G1Je_8sJRLMZWRBr-_F-11">
          <mxGeometry relative="1" as="geometry">
            <mxPoint x="3190" y="940" as="sourcePoint" />
            <mxPoint x="5580" y="2090" as="targetPoint" />
          </mxGeometry>
        </mxCell>
        <mxCell id="5G1Je_8sJRLMZWRBr-_F-17" style="edgeStyle=orthogonalEdgeStyle;rounded=0;orthogonalLoop=1;jettySize=auto;html=1;exitX=0.25;exitY=1;exitDx=0;exitDy=0;entryX=0.5;entryY=0;entryDx=0;entryDy=0;strokeWidth=50;strokeColor=#182E3E;labelBackgroundColor=none;fontColor=default;" edge="1" parent="1" source="5G1Je_8sJRLMZWRBr-_F-5" target="5G1Je_8sJRLMZWRBr-_F-8">
          <mxGeometry relative="1" as="geometry">
            <mxPoint x="3190" y="940" as="sourcePoint" />
            <mxPoint x="5660" y="3870" as="targetPoint" />
          </mxGeometry>
        </mxCell>
        <mxCell id="5G1Je_8sJRLMZWRBr-_F-19" value="&lt;div style=&quot;&quot;&gt;&lt;font style=&quot;font-size: 60px;&quot;&gt;Programas&lt;/font&gt;&lt;/div&gt;&lt;div style=&quot;text-align: left; font-size: 40px;&quot;&gt;&lt;ol&gt;&lt;li&gt;SAPHO v1.0.1;&lt;/li&gt;&lt;li&gt;VSCode;&lt;/li&gt;&lt;li&gt;Brackets;&lt;/li&gt;&lt;li&gt;Chromium;&lt;/li&gt;&lt;li&gt;Electron;&lt;/li&gt;&lt;li&gt;Sumatra;&lt;/li&gt;&lt;li&gt;GitHub Desktop;&lt;/li&gt;&lt;li&gt;GitHub Bash;&lt;/li&gt;&lt;li&gt;Flex &amp;amp; Bison;&lt;/li&gt;&lt;li&gt;MinGW;&lt;/li&gt;&lt;li&gt;GCC Compiler;&lt;/li&gt;&lt;li&gt;Quartus 22.1std, ModelSim;&lt;/li&gt;&lt;li&gt;Drawio;&lt;/li&gt;&lt;li&gt;Everything;&lt;/li&gt;&lt;li&gt;Overleaf;&lt;/li&gt;&lt;li&gt;WinRAR;&lt;/li&gt;&lt;li&gt;Sigstore;&lt;/li&gt;&lt;/ol&gt;&lt;/div&gt;" style="whiteSpace=wrap;html=1;textShadow=1;labelBorderColor=none;labelBackgroundColor=none;rounded=1;glass=0;shadow=0;aspect=fixed;fontStyle=1;fillColor=#F5AB50;strokeColor=#909090;fontColor=#1A1A1A;" vertex="1" parent="1">
          <mxGeometry x="9210" y="1360" width="1000" height="1000" as="geometry" />
        </mxCell>
        <mxCell id="5G1Je_8sJRLMZWRBr-_F-20" value="&lt;div style=&quot;&quot;&gt;&lt;font style=&quot;font-size: 60px;&quot;&gt;Portable&lt;/font&gt;&lt;/div&gt;&lt;div style=&quot;text-align: left; font-size: 40px;&quot;&gt;&lt;ol style=&quot;margin-left: 50px;&quot;&gt;&lt;li&gt;NIPSCERN DIRECTOR é portável, ou seja, não necessita - necessariamente- de permissão de administrador ou de ser instalado&lt;/li&gt;&lt;/ol&gt;&lt;/div&gt;" style="whiteSpace=wrap;html=1;textShadow=1;labelBorderColor=none;labelBackgroundColor=none;rounded=1;glass=0;shadow=0;aspect=fixed;fontStyle=1;fillColor=#F5AB50;strokeColor=#909090;fontColor=#1A1A1A;" vertex="1" parent="1">
          <mxGeometry x="400" y="2550" width="1000" height="1000" as="geometry" />
        </mxCell>
        <mxCell id="5G1Je_8sJRLMZWRBr-_F-21" style="edgeStyle=orthogonalEdgeStyle;rounded=0;orthogonalLoop=1;jettySize=auto;html=1;exitX=0;exitY=0.75;exitDx=0;exitDy=0;entryX=0.5;entryY=0;entryDx=0;entryDy=0;strokeWidth=50;strokeColor=#182E3E;labelBackgroundColor=none;fontColor=default;" edge="1" parent="1" source="5G1Je_8sJRLMZWRBr-_F-5" target="5G1Je_8sJRLMZWRBr-_F-20">
          <mxGeometry relative="1" as="geometry">
            <mxPoint x="2290" y="1540" as="sourcePoint" />
            <mxPoint x="3050" y="6290" as="targetPoint" />
          </mxGeometry>
        </mxCell>
        <mxCell id="5G1Je_8sJRLMZWRBr-_F-22" style="edgeStyle=orthogonalEdgeStyle;rounded=0;orthogonalLoop=1;jettySize=auto;html=1;exitX=1;exitY=0.5;exitDx=0;exitDy=0;entryX=0;entryY=0.5;entryDx=0;entryDy=0;strokeWidth=10;strokeColor=#182E3E;labelBackgroundColor=none;fontColor=default;" edge="1" parent="1" source="5G1Je_8sJRLMZWRBr-_F-23" target="5G1Je_8sJRLMZWRBr-_F-19">
          <mxGeometry relative="1" as="geometry">
            <mxPoint x="6500" y="2260" as="sourcePoint" />
            <mxPoint x="9050" y="3170" as="targetPoint" />
          </mxGeometry>
        </mxCell>
        <mxCell id="5G1Je_8sJRLMZWRBr-_F-23" value="&lt;div style=&quot;&quot;&gt;&lt;font style=&quot;font-size: 60px;&quot;&gt;Available&lt;/font&gt;&lt;/div&gt;&lt;div style=&quot;text-align: left; font-size: 40px;&quot;&gt;&lt;ol style=&quot;margin-right: 0px; margin-left: 50px;&quot;&gt;&lt;li&gt;Instalar programas individualmente;&lt;/li&gt;&lt;li&gt;Instalar programas em Bach Mode;&lt;/li&gt;&lt;li&gt;Instalar atualização mais recente (up-to-date);&lt;/li&gt;&lt;li&gt;Breve descrição sobre os programas, o que eles fazem e para que são úteis no SAPHO;&lt;/li&gt;&lt;li&gt;Tamanho de cada arquivo, espaço necessário. Calcular espaço total dos arquivos&lt;/li&gt;&lt;/ol&gt;&lt;/div&gt;" style="whiteSpace=wrap;html=1;textShadow=1;labelBorderColor=none;labelBackgroundColor=none;rounded=1;glass=0;shadow=0;aspect=fixed;fontStyle=1;fillColor=#F5AB50;strokeColor=#909090;fontColor=#1A1A1A;" vertex="1" parent="1">
          <mxGeometry x="7440" y="480" width="1000" height="1000" as="geometry" />
        </mxCell>
        <mxCell id="5G1Je_8sJRLMZWRBr-_F-24" style="edgeStyle=orthogonalEdgeStyle;rounded=0;orthogonalLoop=1;jettySize=auto;html=1;exitX=0.5;exitY=0;exitDx=0;exitDy=0;entryX=0;entryY=0.5;entryDx=0;entryDy=0;strokeWidth=30;strokeColor=#182E3E;labelBackgroundColor=none;fontColor=default;" edge="1" parent="1" source="5G1Je_8sJRLMZWRBr-_F-9" target="5G1Je_8sJRLMZWRBr-_F-23">
          <mxGeometry relative="1" as="geometry">
            <mxPoint x="8360" y="1420" as="sourcePoint" />
            <mxPoint x="9120" y="1880" as="targetPoint" />
          </mxGeometry>
        </mxCell>
        <mxCell id="5G1Je_8sJRLMZWRBr-_F-25" value="&lt;div style=&quot;&quot;&gt;&lt;font style=&quot;font-size: 60px;&quot;&gt;Installed&lt;/font&gt;&lt;/div&gt;&lt;div style=&quot;text-align: left; font-size: 40px;&quot;&gt;&lt;ol style=&quot;margin-right: 0px; margin-left: 50px;&quot;&gt;&lt;li&gt;Mostrar os programas já instalados;&lt;/li&gt;&lt;li&gt;Open;&lt;/li&gt;&lt;li&gt;Repair;&lt;/li&gt;&lt;li&gt;Uninstall;&lt;/li&gt;&lt;li&gt;Roll-back version;&lt;/li&gt;&lt;li&gt;Update version;&lt;/li&gt;&lt;li&gt;Breve descrição sobre os programas, o que eles fazem e para que são úteis no SAPHO&lt;/li&gt;&lt;/ol&gt;&lt;/div&gt;" style="whiteSpace=wrap;html=1;textShadow=1;labelBorderColor=none;labelBackgroundColor=none;rounded=1;glass=0;shadow=0;aspect=fixed;fontStyle=1;fillColor=#F5AB50;strokeColor=#909090;fontColor=#1A1A1A;" vertex="1" parent="1">
          <mxGeometry x="7440" y="1590" width="1000" height="1000" as="geometry" />
        </mxCell>
        <mxCell id="5G1Je_8sJRLMZWRBr-_F-26" style="edgeStyle=orthogonalEdgeStyle;rounded=0;orthogonalLoop=1;jettySize=auto;html=1;exitX=0.75;exitY=0;exitDx=0;exitDy=0;entryX=0;entryY=0.5;entryDx=0;entryDy=0;strokeWidth=30;strokeColor=#182E3E;labelBackgroundColor=none;fontColor=default;" edge="1" parent="1" target="5G1Je_8sJRLMZWRBr-_F-25" source="5G1Je_8sJRLMZWRBr-_F-9">
          <mxGeometry relative="1" as="geometry">
            <mxPoint x="6770" y="1640" as="sourcePoint" />
            <mxPoint x="9160" y="2780" as="targetPoint" />
          </mxGeometry>
        </mxCell>
        <mxCell id="5G1Je_8sJRLMZWRBr-_F-27" value="&lt;div style=&quot;&quot;&gt;&lt;font style=&quot;font-size: 60px;&quot;&gt;Tema&lt;/font&gt;&lt;/div&gt;&lt;div style=&quot;text-align: left; font-size: 40px;&quot;&gt;&lt;ol style=&quot;margin-right: 0px; margin-left: 50px;&quot;&gt;&lt;li&gt;Alternar entre tema claro e escuro;&lt;/li&gt;&lt;li&gt;Adicionar tema Amoled + cor;&lt;/li&gt;&lt;li&gt;Permitir tema personalizado&lt;/li&gt;&lt;/ol&gt;&lt;/div&gt;" style="whiteSpace=wrap;html=1;textShadow=1;labelBorderColor=none;labelBackgroundColor=none;rounded=1;glass=0;shadow=0;aspect=fixed;fontStyle=1;fillColor=#F5AB50;strokeColor=#909090;fontColor=#1A1A1A;" vertex="1" parent="1">
          <mxGeometry x="7440" y="2720" width="1000" height="1000" as="geometry" />
        </mxCell>
        <mxCell id="5G1Je_8sJRLMZWRBr-_F-28" style="edgeStyle=orthogonalEdgeStyle;rounded=0;orthogonalLoop=1;jettySize=auto;html=1;exitX=1;exitY=0.25;exitDx=0;exitDy=0;entryX=0;entryY=0.5;entryDx=0;entryDy=0;strokeWidth=30;strokeColor=#182E3E;labelBackgroundColor=none;fontColor=default;" edge="1" parent="1" target="5G1Je_8sJRLMZWRBr-_F-27" source="5G1Je_8sJRLMZWRBr-_F-9">
          <mxGeometry relative="1" as="geometry">
            <mxPoint x="6840" y="2670" as="sourcePoint" />
            <mxPoint x="9230" y="3810" as="targetPoint" />
          </mxGeometry>
        </mxCell>
        <mxCell id="5G1Je_8sJRLMZWRBr-_F-29" value="&lt;div style=&quot;&quot;&gt;&lt;font style=&quot;font-size: 60px;&quot;&gt;News&lt;/font&gt;&lt;/div&gt;&lt;div style=&quot;text-align: left; font-size: 40px;&quot;&gt;&lt;ol style=&quot;margin-right: 0px; margin-left: 50px;&quot;&gt;&lt;li&gt;Notas da versão atual do N.D;&lt;/li&gt;&lt;li&gt;Novidades do site;&lt;/li&gt;&lt;li&gt;Novidades da SaphoIDE;&lt;/li&gt;&lt;li&gt;Novidades dos Compiladores;&lt;/li&gt;&lt;li&gt;Novidades do Processador;&lt;/li&gt;&lt;li&gt;Novidades da Documentação&lt;/li&gt;&lt;/ol&gt;&lt;/div&gt;" style="whiteSpace=wrap;html=1;textShadow=1;labelBorderColor=none;labelBackgroundColor=none;rounded=1;glass=0;shadow=0;aspect=fixed;fontStyle=1;fillColor=#F5AB50;strokeColor=#909090;fontColor=#1A1A1A;" vertex="1" parent="1">
          <mxGeometry x="7440" y="3840" width="1000" height="1000" as="geometry" />
        </mxCell>
        <mxCell id="5G1Je_8sJRLMZWRBr-_F-30" style="edgeStyle=orthogonalEdgeStyle;rounded=0;orthogonalLoop=1;jettySize=auto;html=1;exitX=1;exitY=0.5;exitDx=0;exitDy=0;entryX=0;entryY=0.5;entryDx=0;entryDy=0;strokeWidth=30;strokeColor=#182E3E;labelBackgroundColor=none;fontColor=default;" edge="1" parent="1" target="5G1Je_8sJRLMZWRBr-_F-29" source="5G1Je_8sJRLMZWRBr-_F-9">
          <mxGeometry relative="1" as="geometry">
            <mxPoint x="6680" y="2380" as="sourcePoint" />
            <mxPoint x="9180" y="4950" as="targetPoint" />
          </mxGeometry>
        </mxCell>
        <mxCell id="5G1Je_8sJRLMZWRBr-_F-31" value="&lt;div style=&quot;&quot;&gt;&lt;font style=&quot;font-size: 60px;&quot;&gt;Settings&lt;/font&gt;&lt;/div&gt;&lt;div style=&quot;text-align: left; font-size: 40px;&quot;&gt;&lt;ol style=&quot;margin-right: 0px; margin-left: 50px;&quot;&gt;&lt;li&gt;Mudar idioma (PINF);&lt;/li&gt;&lt;li&gt;Abrir nipscern.director.log&lt;/li&gt;&lt;/ol&gt;&lt;/div&gt;" style="whiteSpace=wrap;html=1;textShadow=1;labelBorderColor=none;labelBackgroundColor=none;rounded=1;glass=0;shadow=0;aspect=fixed;fontStyle=1;fillColor=#F5AB50;strokeColor=#909090;fontColor=#1A1A1A;" vertex="1" parent="1">
          <mxGeometry x="7440" y="4960" width="1000" height="1000" as="geometry" />
        </mxCell>
        <mxCell id="5G1Je_8sJRLMZWRBr-_F-32" style="edgeStyle=orthogonalEdgeStyle;rounded=0;orthogonalLoop=1;jettySize=auto;html=1;entryX=0;entryY=0.5;entryDx=0;entryDy=0;strokeWidth=30;strokeColor=#182E3E;labelBackgroundColor=none;fontColor=default;exitX=1;exitY=0.75;exitDx=0;exitDy=0;" edge="1" parent="1" target="5G1Je_8sJRLMZWRBr-_F-31" source="5G1Je_8sJRLMZWRBr-_F-9">
          <mxGeometry relative="1" as="geometry">
            <mxPoint x="6680" y="3480" as="sourcePoint" />
            <mxPoint x="9250" y="6140" as="targetPoint" />
          </mxGeometry>
        </mxCell>
        <mxCell id="5G1Je_8sJRLMZWRBr-_F-33" value="&lt;div style=&quot;&quot;&gt;&lt;font style=&quot;font-size: 60px;&quot;&gt;About&lt;/font&gt;&lt;/div&gt;&lt;div style=&quot;text-align: left; font-size: 40px;&quot;&gt;&lt;ol style=&quot;margin-right: 0px; margin-left: 50px;&quot;&gt;&lt;li&gt;E-mail, site, GitHub, endereço, informações de contato;&lt;/li&gt;&lt;li&gt;Versão;&lt;/li&gt;&lt;li&gt;Contribução;&lt;/li&gt;&lt;li&gt;Logo CNPq &amp;amp; NIPSCERN&lt;/li&gt;&lt;/ol&gt;&lt;/div&gt;" style="whiteSpace=wrap;html=1;textShadow=1;labelBorderColor=none;labelBackgroundColor=none;rounded=1;glass=0;shadow=0;aspect=fixed;fontStyle=1;fillColor=#F5AB50;strokeColor=#909090;fontColor=#1A1A1A;" vertex="1" parent="1">
          <mxGeometry x="7440" y="-640" width="1000" height="1000" as="geometry" />
        </mxCell>
        <mxCell id="5G1Je_8sJRLMZWRBr-_F-34" style="edgeStyle=orthogonalEdgeStyle;rounded=0;orthogonalLoop=1;jettySize=auto;html=1;exitX=0.25;exitY=0;exitDx=0;exitDy=0;entryX=0;entryY=0.5;entryDx=0;entryDy=0;strokeWidth=30;strokeColor=#182E3E;labelBackgroundColor=none;fontColor=default;" edge="1" parent="1" target="5G1Je_8sJRLMZWRBr-_F-33" source="5G1Je_8sJRLMZWRBr-_F-9">
          <mxGeometry relative="1" as="geometry">
            <mxPoint x="6470" y="430" as="sourcePoint" />
            <mxPoint x="9210" y="870" as="targetPoint" />
          </mxGeometry>
        </mxCell>
        <mxCell id="5G1Je_8sJRLMZWRBr-_F-37" style="edgeStyle=orthogonalEdgeStyle;rounded=0;orthogonalLoop=1;jettySize=auto;html=1;entryX=0;entryY=0.25;entryDx=0;entryDy=0;strokeColor=#182E3E;fontColor=#1A1A1A;strokeWidth=5;" edge="1" parent="1" source="5G1Je_8sJRLMZWRBr-_F-36" target="5G1Je_8sJRLMZWRBr-_F-9">
          <mxGeometry relative="1" as="geometry" />
        </mxCell>
        <mxCell id="5G1Je_8sJRLMZWRBr-_F-36" value="&lt;span style=&quot;font-size: 60px;&quot;&gt;Verificar Win/Linux&lt;/span&gt;" style="whiteSpace=wrap;html=1;textShadow=1;labelBorderColor=none;labelBackgroundColor=none;rounded=1;glass=0;shadow=0;fontStyle=1;fillColor=#F5AB50;strokeColor=#909090;fontColor=#1A1A1A;" vertex="1" parent="1">
          <mxGeometry x="4580" y="2140" width="800" height="200" as="geometry" />
        </mxCell>
        <mxCell id="5G1Je_8sJRLMZWRBr-_F-38" style="edgeStyle=orthogonalEdgeStyle;rounded=0;orthogonalLoop=1;jettySize=auto;html=1;entryX=0.25;entryY=0;entryDx=0;entryDy=0;strokeColor=#182E3E;fontColor=#1A1A1A;strokeWidth=5;exitX=0;exitY=0.5;exitDx=0;exitDy=0;" edge="1" parent="1" source="5G1Je_8sJRLMZWRBr-_F-39" target="5G1Je_8sJRLMZWRBr-_F-19">
          <mxGeometry relative="1" as="geometry">
            <mxPoint x="10480" y="1110" as="targetPoint" />
          </mxGeometry>
        </mxCell>
        <mxCell id="5G1Je_8sJRLMZWRBr-_F-39" value="&lt;span style=&quot;font-size: 60px;&quot;&gt;Verificar Win/Linux&lt;/span&gt;" style="whiteSpace=wrap;html=1;textShadow=1;labelBorderColor=none;labelBackgroundColor=none;rounded=1;glass=0;shadow=0;fontStyle=1;fillColor=#F5AB50;strokeColor=#909090;fontColor=#1A1A1A;" vertex="1" parent="1">
          <mxGeometry x="9950" y="630" width="800" height="200" as="geometry" />
        </mxCell>
        <mxCell id="5G1Je_8sJRLMZWRBr-_F-42" value="&lt;b&gt;&lt;font color=&quot;#ff8000&quot; style=&quot;background-color: rgb(51, 51, 51); font-size: 420px;&quot;&gt;NIPSCERN DIRECTOR&lt;/font&gt;&lt;/b&gt;" style="text;html=1;align=center;verticalAlign=middle;resizable=0;points=[];autosize=1;strokeColor=none;fillColor=none;fontColor=#1A1A1A;" vertex="1" parent="1">
          <mxGeometry x="-220" y="-800" width="4500" height="520" as="geometry" />
        </mxCell>
      </root>
    </mxGraphModel>
  </diagram>
</mxfile>
